<?xml version="1.0" encoding="utf-8"?>
<!-- Generator: Adobe Illustrator 16.0.0, SVG Export Plug-In . SVG Version: 6.00 Build 0)  -->
<!DOCTYPE svg PUBLIC "-//W3C//DTD SVG 1.1//EN" "http://www.w3.org/Graphics/SVG/1.1/DTD/svg11.dtd">
<svg version="1.1" id="Capa_1" xmlns="http://www.w3.org/2000/svg" xmlns:xlink="http://www.w3.org/1999/xlink" x="0px" y="0px"
	 width="511.629px" height="511.629px" viewBox="0 0 511.629 511.629" enable-background="new 0 0 511.629 511.629"
	 xml:space="preserve">
<rect x="177.354" y="66.622" fill="#FFFFFF" width="334.279" height="59.429"/>
<path fill="#FFFFFF" d="M47.187,57.552c21.444,0,38.825,17.379,38.825,38.811c0,21.444-17.38,38.823-38.825,38.823
	c-21.431,0-38.81-17.379-38.81-38.823C8.377,74.931,25.756,57.552,47.187,57.552z"/>
<rect x="177.354" y="216.097" fill="#FFFFFF" width="334.279" height="59.417"/>
<path fill="#FFFFFF" d="M47.187,206.988c21.458,0,38.85,17.392,38.85,38.849c0,21.444-17.392,38.85-38.85,38.85
	c-21.456,0-38.848-17.405-38.848-38.85C8.339,224.38,25.731,206.988,47.187,206.988z"/>
<rect x="177.354" y="364.645" fill="#FFFFFF" width="334.279" height="59.455"/>
<path fill="#FFFFFF" d="M47.187,355.548c21.458,0,38.85,17.38,38.85,38.85s-17.392,38.849-38.85,38.849
	c-21.456,0-38.848-17.379-38.848-38.849S25.731,355.548,47.187,355.548z"/>
</svg>
