<?xml version="1.0" encoding="utf-8"?>
<!-- Generator: Adobe Illustrator 16.0.0, SVG Export Plug-In . SVG Version: 6.00 Build 0)  -->
<!DOCTYPE svg PUBLIC "-//W3C//DTD SVG 1.1//EN" "http://www.w3.org/Graphics/SVG/1.1/DTD/svg11.dtd">
<svg version="1.1" id="Layer_1" xmlns="http://www.w3.org/2000/svg" xmlns:xlink="http://www.w3.org/1999/xlink" x="0px" y="0px"
	 width="25px" height="25px" viewBox="0 0 25 25" enable-background="new 0 0 25 25" xml:space="preserve">
<g>
	<path fill="#CECEC8" d="M22.676,7.261h-9.688l2.028-1.169c0.278-0.161,0.375-0.519,0.213-0.798c-0.16-0.28-0.521-0.376-0.799-0.214
		l-3.916,2.26c-0.182,0.104-0.293,0.297-0.293,0.506s0.111,0.402,0.293,0.507l3.916,2.261c0.092,0.053,0.193,0.079,0.291,0.079
		c0.203,0,0.399-0.105,0.508-0.293c0.164-0.28,0.066-0.638-0.213-0.799L12.99,8.432h9.102V19.35H2.908V8.431h4.27
		c0.323,0,0.584-0.261,0.584-0.584c0-0.324-0.262-0.585-0.584-0.585H2.323C2,7.261,1.739,7.523,1.739,7.847v12.088
		c0,0.321,0.262,0.582,0.584,0.582h20.353c0.325,0,0.586-0.261,0.586-0.582V7.847C23.262,7.523,23.001,7.261,22.676,7.261z"/>
</g>
</svg>
