<?xml version="1.0" encoding="utf-8"?>
<!-- Generator: Adobe Illustrator 16.0.0, SVG Export Plug-In . SVG Version: 6.00 Build 0)  -->
<!DOCTYPE svg PUBLIC "-//W3C//DTD SVG 1.1//EN" "http://www.w3.org/Graphics/SVG/1.1/DTD/svg11.dtd">
<svg version="1.1" id="Capa_1" xmlns="http://www.w3.org/2000/svg" xmlns:xlink="http://www.w3.org/1999/xlink" x="0px" y="0px"
	 width="511.629px" height="511.629px" viewBox="0 0 511.629 511.629" enable-background="new 0 0 511.629 511.629"
	 xml:space="preserve">
<g>
	<path fill="#FFFFFF" d="M506.204,41.968c-3.617-3.617-7.902-5.426-12.852-5.426h-36.543c-4.947,0-9.23,1.809-12.846,5.426
		c-3.621,3.619-5.428,7.902-5.428,12.851v193.572c-0.955-2.091-2.189-3.899-3.717-5.424L232.11,40.257
		c-3.616-3.615-6.658-4.853-9.136-3.709c-2.474,1.141-3.711,4.187-3.711,9.135v202.708c-0.95-2.091-2.187-3.899-3.709-5.424
		L12.847,40.257c-3.617-3.615-6.661-4.853-9.135-3.709C1.237,37.689,0,40.735,0,45.683v420.263c0,4.947,1.241,7.998,3.715,9.141
		c2.474,1.139,5.518-0.1,9.135-3.721l202.707-202.707c1.52-1.709,2.76-3.52,3.709-5.422v202.709c0,4.947,1.237,7.994,3.711,9.133
		c2.474,1.141,5.52-0.1,9.136-3.717l202.71-202.708c1.521-1.711,2.762-3.524,3.713-5.428v193.571c0,4.947,1.811,9.229,5.428,12.846
		c3.613,3.617,7.898,5.426,12.846,5.426h36.547c4.943,0,9.232-1.809,12.85-5.426c3.615-3.615,5.426-7.896,5.426-12.846V54.819
		C511.625,49.863,509.821,45.584,506.204,41.968z"/>
</g>
</svg>
