<?xml version="1.0" encoding="utf-8"?>
<!-- Generator: Adobe Illustrator 16.0.0, SVG Export Plug-In . SVG Version: 6.00 Build 0)  -->
<!DOCTYPE svg PUBLIC "-//W3C//DTD SVG 1.1//EN" "http://www.w3.org/Graphics/SVG/1.1/DTD/svg11.dtd">
<svg version="1.1" id="Capa_1" xmlns="http://www.w3.org/2000/svg" xmlns:xlink="http://www.w3.org/1999/xlink" x="0px" y="0px"
	 width="511.633px" height="511.633px" viewBox="0 0 511.633 511.633" enable-background="new 0 0 511.633 511.633"
	 xml:space="preserve">
<g>
	<path fill="#FFFFFF" d="M507.917,36.552c-2.479-1.143-5.523,0.094-9.135,3.709L296.079,242.965
		c-1.718,1.524-2.957,3.333-3.718,5.424V45.681c0-4.948-1.238-7.994-3.715-9.137c-2.476-1.141-5.519,0.096-9.139,3.711
		L76.807,242.965c-1.718,1.524-2.954,3.333-3.715,5.424V54.816c0-4.952-1.809-9.235-5.424-12.851
		c-3.617-3.617-7.898-5.426-12.847-5.426H18.274c-4.952,0-9.233,1.809-12.851,5.426C1.809,45.585,0,49.868,0,54.816v401.991
		c0,4.949,1.809,9.23,5.424,12.848c3.621,3.609,7.904,5.426,12.851,5.426h36.543c4.948,0,9.229-1.814,12.847-5.426
		c3.616-3.617,5.424-7.898,5.424-12.848V263.234c0.765,1.901,2.002,3.714,3.714,5.425l202.712,202.709
		c3.612,3.619,6.655,4.861,9.131,3.719c2.477-1.143,3.715-4.188,3.715-9.137V263.237c0.768,1.903,2,3.717,3.718,5.426
		l202.708,202.711c3.613,3.617,6.659,4.859,9.137,3.717c2.473-1.143,3.71-4.188,3.71-9.137V45.688
		C511.63,40.739,510.388,37.693,507.917,36.552z"/>
</g>
</svg>
