<?xml version="1.0" encoding="utf-8"?>
<!-- Generator: Adobe Illustrator 16.0.0, SVG Export Plug-In . SVG Version: 6.00 Build 0)  -->
<!DOCTYPE svg PUBLIC "-//W3C//DTD SVG 1.1//EN" "http://www.w3.org/Graphics/SVG/1.1/DTD/svg11.dtd">
<svg version="1.1" id="Capa_1" xmlns="http://www.w3.org/2000/svg" xmlns:xlink="http://www.w3.org/1999/xlink" x="0px" y="0px"
	 width="511.625px" height="511.625px" viewBox="0 0 511.625 511.625" enable-background="new 0 0 511.625 511.625"
	 xml:space="preserve">
<g>
	<g>
		<path fill="#FFFFFF" d="M234.693,270.09c8.754-20.746,16.175-37.02,22.267-48.82c4.567-8.754,8.854-16.13,12.851-22.126
			c3.993-5.996,8.851-11.849,14.558-17.558c5.715-5.711,12.278-9.998,19.705-12.85c7.42-2.855,15.697-4.283,24.838-4.283h73.084
			v54.818c0,2.474,0.904,4.617,2.711,6.423c1.807,1.809,3.949,2.712,6.42,2.712c2.668,0,4.859-0.854,6.563-2.568l91.365-91.359
			c1.717-1.715,2.572-3.901,2.572-6.567s-0.855-4.853-2.572-6.574L417.975,30.26c-2.277-1.902-4.57-2.849-6.852-2.849
			c-2.668,0-4.852,0.855-6.57,2.57c-1.703,1.713-2.559,3.9-2.559,6.565V91.36h-73.084c-12.947,0-25.127,1.574-36.55,4.714
			c-11.423,3.14-21.56,7.135-30.409,11.991c-8.852,4.854-17.416,11.372-25.697,19.558c-8.28,8.182-15.324,16.084-21.126,23.697
			c-5.804,7.611-11.897,17.127-18.272,28.549c-6.374,11.42-11.514,21.414-15.416,29.978c-3.903,8.566-8.613,19.13-14.132,31.693
			c-8.757,20.746-16.18,37.022-22.27,48.822c-4.567,8.754-8.853,16.133-12.847,22.127c-3.996,5.996-8.853,11.848-14.562,17.557
			c-5.711,5.715-12.278,10-19.701,12.854c-7.421,2.854-15.703,4.284-24.838,4.284H9.139c-2.666,0-4.856,0.85-6.567,2.566
			c-1.709,1.711-2.568,3.895-2.568,6.563v54.822c0,2.664,0.862,4.854,2.575,6.57c1.714,1.713,3.905,2.568,6.567,2.568H73.1
			c12.946,0,25.125-1.574,36.547-4.717c11.42-3.143,21.558-7.139,30.406-11.99c8.853-4.857,17.417-11.377,25.697-19.563
			c8.278-8.18,15.324-16.084,21.128-23.694c5.802-7.615,11.894-17.129,18.271-28.548c6.374-11.424,11.516-21.416,15.416-29.979
			C224.464,293.217,229.173,282.657,234.693,270.09z"/>
		<path fill="#FFFFFF" d="M9.135,164.45h63.954c8.375,0,16.13,1.381,23.269,4.143c7.139,2.762,13.134,6.091,17.987,9.995
			c4.854,3.904,9.707,9.279,14.561,16.13c4.853,6.855,8.708,12.9,11.563,18.131c2.853,5.236,6.374,12.137,10.562,20.701
			c14.659-34.451,27.694-60.432,39.115-77.943c-30.454-42.825-69.473-64.241-117.058-64.241H9.135c-2.666,0-4.856,0.855-6.567,2.57
			C0.859,95.647,0,97.834,0,100.5v54.818c0,2.667,0.855,4.851,2.568,6.563C4.283,163.596,6.473,164.45,9.135,164.45z"/>
		<path fill="#FFFFFF" d="M417.983,286.084c-2.285-1.901-4.572-2.847-6.857-2.847c-2.662,0-4.854,0.853-6.563,2.566
			c-1.713,1.711-2.566,3.901-2.566,6.563v54.822h-73.092c-8.377,0-16.131-1.383-23.271-4.146c-7.139-2.76-13.135-6.088-17.986-9.994
			c-4.85-3.9-9.705-9.279-14.559-16.135c-4.855-6.852-8.713-12.897-11.566-18.135c-2.852-5.227-6.373-12.135-10.561-20.693
			c-14.655,34.26-27.596,60.24-38.828,77.943c5.137,7.422,10.467,14.037,15.987,19.838c5.518,5.805,10.754,10.896,15.702,15.276
			c4.949,4.374,10.564,8.187,16.845,11.415c6.283,3.238,11.799,5.949,16.563,8.141c4.771,2.188,10.76,3.949,17.99,5.283
			c7.23,1.326,13.322,2.334,18.271,2.99c4.947,0.664,11.707,1.143,20.271,1.432c8.563,0.287,15.51,0.375,20.834,0.287
			c5.334-0.098,13.045-0.199,23.133-0.287c10.09-0.094,18.18-0.145,24.271-0.145v54.818c0,2.475,0.904,4.617,2.711,6.424
			s3.949,2.711,6.42,2.711c2.668,0,4.859-0.855,6.563-2.566l91.365-91.357c1.711-1.719,2.566-3.901,2.566-6.57
			c0-2.666-0.855-4.854-2.574-6.563L417.983,286.084z"/>
	</g>
</g>
</svg>
