<?xml version="1.0" encoding="utf-8"?>
<!-- Generator: Adobe Illustrator 16.0.0, SVG Export Plug-In . SVG Version: 6.00 Build 0)  -->
<!DOCTYPE svg PUBLIC "-//W3C//DTD SVG 1.1//EN" "http://www.w3.org/Graphics/SVG/1.1/DTD/svg11.dtd">
<svg version="1.1" id="Capa_1" xmlns="http://www.w3.org/2000/svg" xmlns:xlink="http://www.w3.org/1999/xlink" x="0px" y="0px"
	 width="475.082px" height="475.082px" viewBox="0 0 475.082 475.082" enable-background="new 0 0 475.082 475.082"
	 xml:space="preserve">
<g>
	<g>
		<path fill="#CBCBCB" d="M200.999,63.952c-4.946,0-9.229,1.812-12.847,5.426l-95.074,95.075H18.276
			c-4.952,0-9.234,1.812-12.85,5.424C1.809,173.493,0,177.778,0,182.726v109.629c0,4.949,1.809,9.233,5.426,12.85
			c3.619,3.615,7.902,5.426,12.85,5.426h74.798l95.074,95.078c3.617,3.611,7.9,5.424,12.847,5.424c4.952,0,9.234-1.813,12.85-5.424
			c3.617-3.613,5.426-7.9,5.426-12.848V82.228c0-4.948-1.809-9.234-5.422-12.85C210.23,65.764,205.951,63.952,200.999,63.952z"/>
		<path fill="#CBCBCB" d="M316.769,277.936c8.095-12.468,12.137-25.931,12.137-40.395c0-14.465-4.042-27.992-12.137-40.556
			c-8.094-12.562-18.79-21.41-32.12-26.551c-1.901-0.949-4.283-1.427-7.14-1.427c-4.944,0-9.231,1.762-12.847,5.282
			c-3.61,3.521-5.428,7.852-5.428,12.99c0,3.997,1.144,7.376,3.433,10.137c2.283,2.762,5.041,5.142,8.282,7.139
			c3.23,1.998,6.468,4.188,9.708,6.567c3.237,2.38,5.995,5.758,8.278,10.135c2.274,4.38,3.426,9.804,3.426,16.277
			c0,6.471-1.145,11.896-3.426,16.276c-2.283,4.381-5.041,7.754-8.278,10.141c-3.24,2.379-6.478,4.568-9.708,6.566
			c-3.241,1.991-5.999,4.377-8.282,7.131c-2.282,2.766-3.433,6.145-3.433,10.141c0,5.145,1.815,9.471,5.428,12.99
			c3.613,3.521,7.902,5.287,12.847,5.287c2.854,0,5.236-0.479,7.14-1.424C297.979,299.305,308.679,290.402,316.769,277.936z"/>
		<path fill="#CBCBCB" d="M377.728,318.193c16.182-24.646,24.273-51.529,24.273-80.653s-8.094-56.005-24.273-80.666
			c-16.177-24.645-37.6-42.583-64.239-53.815c-2.473-0.95-4.948-1.427-7.416-1.427c-4.948,0-9.236,1.809-12.854,5.426
			c-3.612,3.616-5.424,7.898-5.424,12.847c0,7.424,3.713,13.039,11.14,16.849c10.656,5.518,17.889,9.705,21.692,12.559
			c14.089,10.28,25.077,23.173,32.976,38.686c7.898,15.514,11.85,32.026,11.85,49.537c0,17.512-3.949,34.022-11.85,49.536
			c-7.896,15.516-18.894,28.406-32.976,38.684c-3.806,2.857-11.036,7.043-21.692,12.563c-7.427,3.811-11.14,9.426-11.14,16.848
			c0,4.949,1.812,9.236,5.424,12.848c3.617,3.621,7.991,5.432,13.131,5.432c2.286,0,4.668-0.481,7.141-1.428
			C340.128,360.783,361.551,342.843,377.728,318.193z"/>
		<path fill="#CBCBCB" d="M438.824,116.92c-24.171-36.638-56.343-63.622-96.505-80.943c-2.473-0.95-4.948-1.425-7.416-1.425
			c-4.948,0-9.236,1.811-12.849,5.424c-3.621,3.615-5.432,7.902-5.432,12.85c0,6.851,3.714,12.469,11.14,16.846
			c1.335,0.756,3.469,1.755,6.42,2.996c2.95,1.232,5.091,2.231,6.429,2.993c8.754,4.755,16.56,9.611,23.418,14.56
			c23.407,17.318,41.682,38.922,54.814,64.809c13.136,25.885,19.697,53.388,19.697,82.512c0,29.129-6.563,56.625-19.697,82.513
			c-13.131,25.889-31.407,47.495-54.814,64.809c-6.858,4.947-14.664,9.801-23.418,14.563c-1.338,0.756-3.479,1.752-6.429,2.99
			c-2.951,1.229-5.085,2.229-6.42,2.998c-7.426,4.373-11.14,9.992-11.14,16.844c0,4.949,1.811,9.232,5.432,12.848
			c3.61,3.617,7.898,5.429,12.849,5.429c2.468,0,4.943-0.478,7.416-1.433c40.162-17.313,72.334-44.301,96.505-80.938
			c24.174-36.64,36.258-76.851,36.258-120.625C475.082,193.76,463.001,153.554,438.824,116.92z"/>
	</g>
</g>
</svg>
