<?xml version="1.0" encoding="utf-8"?>
<!-- Generator: Adobe Illustrator 16.0.0, SVG Export Plug-In . SVG Version: 6.00 Build 0)  -->
<!DOCTYPE svg PUBLIC "-//W3C//DTD SVG 1.1//EN" "http://www.w3.org/Graphics/SVG/1.1/DTD/svg11.dtd">
<svg version="1.1" id="Layer_1" xmlns="http://www.w3.org/2000/svg" xmlns:xlink="http://www.w3.org/1999/xlink" x="0px" y="0px"
	 width="25px" height="25px" viewBox="0 0 25 25" enable-background="new 0 0 25 25" xml:space="preserve">
<g>
	<rect x="3.267" y="3.708" fill="#3CD1DD" width="0.531" height="14.521"/>
	<rect x="1.609" y="3.703" fill="#3CD1DD" width="0.531" height="14.521"/>
	<rect x="-0.016" y="3.703" fill="#3CD1DD" width="0.531" height="14.521"/>
	<rect x="4.906" y="3.703" fill="#3CD1DD" width="0.531" height="14.521"/>
	<rect x="6.531" y="3.703" fill="#3CD1DD" width="0.531" height="14.521"/>
	<rect x="8.141" y="3.703" fill="#3CD1DD" width="0.531" height="14.521"/>
	<rect x="9.797" y="3.703" fill="#3CD1DD" width="0.531" height="14.521"/>
	<rect x="11.422" y="3.703" fill="#3CD1DD" width="0.531" height="14.521"/>
	<rect x="13.047" y="3.703" fill="#3CD1DD" width="0.531" height="14.521"/>
	<rect x="14.688" y="3.719" fill="#3CD1DD" width="0.531" height="14.521"/>
	<rect x="16.313" y="3.719" fill="#3CD1DD" width="0.531" height="14.521"/>
	<rect x="17.938" y="3.719" fill="#3CD1DD" width="0.531" height="14.521"/>
	<rect x="19.563" y="3.719" fill="#3CD1DD" width="0.531" height="14.521"/>
	<rect x="21.188" y="3.719" fill="#3CD1DD" width="0.531" height="14.521"/>
	<rect x="22.828" y="3.719" fill="#3CD1DD" width="0.531" height="14.521"/>
	<rect x="24.453" y="3.719" fill="#3CD1DD" width="0.531" height="14.521"/>
</g>
</svg>
