<?xml version="1.0" encoding="utf-8"?>
<!-- Generator: Adobe Illustrator 16.0.0, SVG Export Plug-In . SVG Version: 6.00 Build 0)  -->
<!DOCTYPE svg PUBLIC "-//W3C//DTD SVG 1.1//EN" "http://www.w3.org/Graphics/SVG/1.1/DTD/svg11.dtd">
<svg version="1.1" id="Capa_1" xmlns="http://www.w3.org/2000/svg" xmlns:xlink="http://www.w3.org/1999/xlink" x="0px" y="0px"
	 width="475.082px" height="475.082px" viewBox="0 0 475.082 475.082" enable-background="new 0 0 475.082 475.082"
	 xml:space="preserve">
<g>
	<path fill="#CBCBCB" d="M323.999,63.952c-4.946,0-9.229,1.812-12.847,5.426l-95.074,95.075h-74.802
		c-4.952,0-9.234,1.812-12.85,5.424c-3.617,3.616-5.426,7.901-5.426,12.849v109.629c0,4.949,1.809,9.233,5.426,12.85
		c3.619,3.615,7.902,5.426,12.85,5.426h74.798l95.074,95.078c3.617,3.611,7.899,5.424,12.847,5.424
		c4.952,0,9.233-1.813,12.851-5.424c3.616-3.613,5.426-7.9,5.426-12.848V82.228c0-4.948-1.81-9.234-5.422-12.85
		C333.23,65.764,328.951,63.952,323.999,63.952z"/>
</g>
</svg>
